<?xml version="1.0" encoding="UTF-8"?>
<svg id="Layer_2" data-name="Layer 2" xmlns="http://www.w3.org/2000/svg" viewBox="0 0 132.91 101.37">
  <defs>
    <style>
      .cls-1 {
        fill: #fff;
      }
    </style>
  </defs>
  <g id="Layer_1-2" data-name="Layer 1">
    <path class="cls-1" d="m66.39,101.35c-21.16,0-42.32,0-63.48,0Q0,101.35,0,98.42C0,66.26,0,34.1,0,1.94,0,.03,0,.03,1.89.03,13.97.02,26.05.03,38.13,0c.89,0,1.03.31,1.02,1.08-.03,4.31-.01,8.63-.02,12.95,0,1.64,0,1.65,1.65,1.65,13.45,0,26.91-.02,40.36-.02,15.95,0,31.91,0,47.86,0,.79,0,1.6.06,2.37-.07,1.14-.19,1.52.13,1.52,1.34-.03,27.63-.03,55.27,0,82.9,0,1.2-.35,1.54-1.54,1.54-20.95-.03-41.91-.01-62.86,0-.71,0-1.42,0-2.12,0v-.02ZM31.46,38.73v7.95c2.34,0,4.64.03,6.95-.04.22,0,.58-.63.59-.97.06-1.78-.03-3.56.06-5.34.05-.98-.35-1.22-1.22-1.2-1.74.04-3.49.04-5.23,0-.38,0-.76-.26-1.14-.4-.06-1.43-.17-2.85-.18-4.28-.03-3.18,0-3.18-3.26-3.19-1.51,0-3.03,0-4.6,0,0,2.52-.02,4.7.03,6.89,0,.27.44.75.68.75,2.45-.01,4.89-.1,7.34-.17Zm31.13,31.54v-.02c-7.2,0-14.41,0-21.61,0q-1.85,0-1.84,1.77c0,1.58.02,3.15-.02,4.73-.02.84.26,1.2,1.15,1.17,1.66-.05,3.33-.03,5-.03,12.99,0,25.98,0,38.97.01,1.58,0,1.68-.12,1.66-1.7-.02-1.49-.12-2.99,0-4.48.09-1.17-.29-1.48-1.44-1.48-7.29.04-14.57.02-21.86.02Zm39.04,23.13c5.08,0,9.95.02,14.82-.04.27,0,.75-.6.76-.93.06-1.91.05-3.82-.05-5.72-.02-.32-.53-.88-.83-.88-4.58-.06-9.16-.06-13.75,0-.32,0-.91.54-.92.84-.08,2.19-.04,4.38-.04,6.75Zm-78.21-15.38c0,2.43,0,4.62,0,6.81,0,.79.48.83,1.08.83,4.46,0,8.91-.02,13.37,0,.85,0,1.2-.24,1.18-1.14-.05-1.74-.07-3.49.02-5.23.05-1-.29-1.3-1.26-1.29-3.42.04-6.83,0-10.25,0-1.32,0-2.65,0-4.13,0Zm70.31,7.64v-.02c2.25,0,4.5-.03,6.74.02.85.02,1.07-.31,1.06-1.09-.04-1.82-.04-3.65,0-5.47.02-.79-.23-1.11-1.06-1.1-4.45.04-8.91.04-13.36.03-.72,0-1.07.17-1.06.97.03,1.86.01,3.73-.02,5.6-.01.78.24,1.11,1.08,1.09,2.2-.05,4.41-.02,6.62-.02ZM23.41,46.95c0,2.39-.02,4.66.03,6.93,0,.22.45.62.7.62,2.12.05,4.24.05,6.37,0,.25,0,.71-.38.72-.59.05-2.3.03-4.61.03-6.97h-7.85Zm85.81-.05c-2.32,0-4.52-.04-6.71.04-.3.01-.82.58-.83.91-.08,1.95-.07,3.9-.01,5.84,0,.28.42.79.66.79,2.27.06,4.55.04,6.9.04v-7.63Zm-70.06,0c0,2.4-.03,4.7.04,7.01,0,.22.62.6.96.61,1.87.06,3.74,0,5.61.04.84.02,1.08-.31,1.06-1.09-.04-1.82-.05-3.64,0-5.46.03-.89-.32-1.13-1.17-1.11-2.07.05-4.15.02-6.51.02Zm7.66-11.85h0c0-.91-.04-1.82.01-2.73.05-.78-.31-1.04-1.02-1.03-1.91.01-3.82.02-5.73.01-.68,0-.96.28-.94.98.03,1.86.04,3.73,0,5.59-.02.82.31,1.1,1.1,1.09,1.87-.03,3.74-.05,5.61-.01.8.02,1.01-.33.99-1.04-.03-.95,0-1.9,0-2.86Zm39.26.07h-.02c0,.95.02,1.9,0,2.85-.02.75.29,1.02,1.04.99,1.82-.05,3.65-.11,5.48-.03.94.04,1.17-.35,1.16-1.14,0-1.82-.02-3.64.02-5.46.02-.84-.4-1.07-1.15-1.06-1.45.02-2.9.02-4.36,0-2.68-.02-2.14.05-2.17,2.09,0,.58,0,1.16,0,1.74Zm3.65,11.79h0c-.87-.01-1.75.03-2.61-.02-.74-.04-1.06.18-1.05.96.02,1.9,0,3.8-.03,5.71,0,.65.2,1.01.93,1,1.95-.02,3.9-.02,5.85,0,.7,0,.95-.3.94-.98-.03-1.86-.03-3.72-.03-5.58,0-.76-.31-1.13-1.13-1.09-.95.05-1.91.01-2.86.01Zm11.91-15.64c0,2.48,0,4.64,0,6.79,0,.77.48.86,1.07.86,1.92,0,3.83,0,5.75.03.69.01.85-.31.84-.91-.02-1.2,0-2.41,0-3.61q0-3.16-3.15-3.16c-1.48,0-2.95,0-4.5,0Zm-.21,15.49v-7.6c-2.3,0-4.5,0-6.7,0-.75,0-.89.4-.88,1.04.02,1.74.07,3.49-.02,5.23-.06,1.02.39,1.34,1.28,1.34,2.07,0,4.15,0,6.32,0Z"/>
  </g>
</svg>